<mxfile host="app.diagrams.net" agent="Mozilla/5.0 (Macintosh; Intel Mac OS X 10_15_7) AppleWebKit/537.36 (KHTML, like Gecko) Chrome/129.0.0.0 Safari/537.36" version="24.7.17">
  <diagram name="Page-1" id="JQJwtRez1m_muI4c9sBG">
    <mxGraphModel dx="1207" dy="805" grid="1" gridSize="10" guides="1" tooltips="1" connect="1" arrows="1" fold="1" page="1" pageScale="1" pageWidth="850" pageHeight="1100" math="0" shadow="0">
      <root>
        <mxCell id="0" />
        <mxCell id="1" parent="0" />
        <mxCell id="n9ukQrLT0u2X3xsJsxkC-43" style="edgeStyle=orthogonalEdgeStyle;rounded=0;orthogonalLoop=1;jettySize=auto;html=1;exitX=1;exitY=0.5;exitDx=0;exitDy=0;entryX=0;entryY=0.5;entryDx=0;entryDy=0;endArrow=none;endFill=0;" edge="1" parent="1" source="n9ukQrLT0u2X3xsJsxkC-1" target="n9ukQrLT0u2X3xsJsxkC-10">
          <mxGeometry relative="1" as="geometry" />
        </mxCell>
        <mxCell id="n9ukQrLT0u2X3xsJsxkC-50" style="rounded=0;orthogonalLoop=1;jettySize=auto;html=1;exitX=0.5;exitY=1;exitDx=0;exitDy=0;entryX=0.5;entryY=0;entryDx=0;entryDy=0;endArrow=none;endFill=0;" edge="1" parent="1" source="n9ukQrLT0u2X3xsJsxkC-1" target="n9ukQrLT0u2X3xsJsxkC-49">
          <mxGeometry relative="1" as="geometry" />
        </mxCell>
        <mxCell id="n9ukQrLT0u2X3xsJsxkC-108" style="rounded=0;orthogonalLoop=1;jettySize=auto;html=1;exitX=1;exitY=1;exitDx=0;exitDy=0;entryX=0;entryY=0;entryDx=0;entryDy=0;endArrow=none;endFill=0;" edge="1" parent="1" source="n9ukQrLT0u2X3xsJsxkC-1" target="n9ukQrLT0u2X3xsJsxkC-107">
          <mxGeometry relative="1" as="geometry" />
        </mxCell>
        <mxCell id="n9ukQrLT0u2X3xsJsxkC-1" value="bp_release" style="rounded=0;whiteSpace=wrap;html=1;" vertex="1" parent="1">
          <mxGeometry x="100" y="190" width="80" height="30" as="geometry" />
        </mxCell>
        <mxCell id="n9ukQrLT0u2X3xsJsxkC-4" style="rounded=0;orthogonalLoop=1;jettySize=auto;html=1;exitX=1;exitY=1;exitDx=0;exitDy=0;endArrow=none;endFill=0;" edge="1" parent="1" source="n9ukQrLT0u2X3xsJsxkC-2" target="n9ukQrLT0u2X3xsJsxkC-1">
          <mxGeometry relative="1" as="geometry" />
        </mxCell>
        <mxCell id="n9ukQrLT0u2X3xsJsxkC-2" value="&lt;u&gt;release_id&lt;/u&gt;" style="ellipse;whiteSpace=wrap;html=1;" vertex="1" parent="1">
          <mxGeometry x="40" y="150" width="70" height="20" as="geometry" />
        </mxCell>
        <mxCell id="n9ukQrLT0u2X3xsJsxkC-5" value="release_title" style="ellipse;whiteSpace=wrap;html=1;" vertex="1" parent="1">
          <mxGeometry x="120" y="150" width="70" height="20" as="geometry" />
        </mxCell>
        <mxCell id="n9ukQrLT0u2X3xsJsxkC-6" style="rounded=0;orthogonalLoop=1;jettySize=auto;html=1;exitX=0.5;exitY=1;exitDx=0;exitDy=0;endArrow=none;endFill=0;" edge="1" parent="1" source="n9ukQrLT0u2X3xsJsxkC-5">
          <mxGeometry relative="1" as="geometry">
            <mxPoint x="150" y="190" as="targetPoint" />
          </mxGeometry>
        </mxCell>
        <mxCell id="n9ukQrLT0u2X3xsJsxkC-8" style="rounded=0;orthogonalLoop=1;jettySize=auto;html=1;exitX=1;exitY=0.5;exitDx=0;exitDy=0;entryX=0;entryY=0.25;entryDx=0;entryDy=0;endArrow=none;endFill=0;" edge="1" parent="1" source="n9ukQrLT0u2X3xsJsxkC-7" target="n9ukQrLT0u2X3xsJsxkC-1">
          <mxGeometry relative="1" as="geometry" />
        </mxCell>
        <mxCell id="n9ukQrLT0u2X3xsJsxkC-7" value="release_url" style="ellipse;whiteSpace=wrap;html=1;" vertex="1" parent="1">
          <mxGeometry x="10" y="190" width="70" height="20" as="geometry" />
        </mxCell>
        <mxCell id="n9ukQrLT0u2X3xsJsxkC-46" style="rounded=0;orthogonalLoop=1;jettySize=auto;html=1;exitX=0.25;exitY=0;exitDx=0;exitDy=0;entryX=0.5;entryY=1;entryDx=0;entryDy=0;endArrow=none;endFill=0;" edge="1" parent="1" source="n9ukQrLT0u2X3xsJsxkC-9" target="n9ukQrLT0u2X3xsJsxkC-11">
          <mxGeometry relative="1" as="geometry" />
        </mxCell>
        <mxCell id="n9ukQrLT0u2X3xsJsxkC-9" value="bp_release_media" style="rounded=0;whiteSpace=wrap;html=1;" vertex="1" parent="1">
          <mxGeometry x="450" y="190" width="110" height="30" as="geometry" />
        </mxCell>
        <mxCell id="n9ukQrLT0u2X3xsJsxkC-44" style="edgeStyle=orthogonalEdgeStyle;rounded=0;orthogonalLoop=1;jettySize=auto;html=1;exitX=1;exitY=0.5;exitDx=0;exitDy=0;entryX=0;entryY=0.5;entryDx=0;entryDy=0;endArrow=none;endFill=0;" edge="1" parent="1" source="n9ukQrLT0u2X3xsJsxkC-10" target="n9ukQrLT0u2X3xsJsxkC-9">
          <mxGeometry relative="1" as="geometry" />
        </mxCell>
        <mxCell id="n9ukQrLT0u2X3xsJsxkC-10" value="has" style="rhombus;whiteSpace=wrap;html=1;" vertex="1" parent="1">
          <mxGeometry x="280" y="190" width="70" height="30" as="geometry" />
        </mxCell>
        <mxCell id="n9ukQrLT0u2X3xsJsxkC-11" value="&lt;u&gt;release_id&lt;/u&gt;" style="ellipse;whiteSpace=wrap;html=1;" vertex="1" parent="1">
          <mxGeometry x="440" y="150" width="70" height="20" as="geometry" />
        </mxCell>
        <mxCell id="n9ukQrLT0u2X3xsJsxkC-48" style="rounded=0;orthogonalLoop=1;jettySize=auto;html=1;exitX=0.5;exitY=1;exitDx=0;exitDy=0;endArrow=none;endFill=0;" edge="1" parent="1" source="n9ukQrLT0u2X3xsJsxkC-12">
          <mxGeometry relative="1" as="geometry">
            <mxPoint x="540" y="190" as="targetPoint" />
          </mxGeometry>
        </mxCell>
        <mxCell id="n9ukQrLT0u2X3xsJsxkC-12" value="release_img_uuid" style="ellipse;whiteSpace=wrap;html=1;" vertex="1" parent="1">
          <mxGeometry x="530" y="150" width="90" height="20" as="geometry" />
        </mxCell>
        <mxCell id="n9ukQrLT0u2X3xsJsxkC-55" style="rounded=0;orthogonalLoop=1;jettySize=auto;html=1;exitX=0.5;exitY=1;exitDx=0;exitDy=0;entryX=0.5;entryY=0;entryDx=0;entryDy=0;endArrow=none;endFill=0;" edge="1" parent="1" source="n9ukQrLT0u2X3xsJsxkC-14" target="n9ukQrLT0u2X3xsJsxkC-54">
          <mxGeometry relative="1" as="geometry" />
        </mxCell>
        <mxCell id="n9ukQrLT0u2X3xsJsxkC-14" value="bp_artist_release" style="rounded=0;whiteSpace=wrap;html=1;" vertex="1" parent="1">
          <mxGeometry x="90" y="350" width="100" height="30" as="geometry" />
        </mxCell>
        <mxCell id="n9ukQrLT0u2X3xsJsxkC-52" style="rounded=0;orthogonalLoop=1;jettySize=auto;html=1;exitX=1;exitY=0.5;exitDx=0;exitDy=0;entryX=0;entryY=0;entryDx=0;entryDy=0;endArrow=none;endFill=0;" edge="1" parent="1" source="n9ukQrLT0u2X3xsJsxkC-15" target="n9ukQrLT0u2X3xsJsxkC-14">
          <mxGeometry relative="1" as="geometry" />
        </mxCell>
        <mxCell id="n9ukQrLT0u2X3xsJsxkC-15" value="&lt;u&gt;release_id&lt;/u&gt;" style="ellipse;whiteSpace=wrap;html=1;" vertex="1" parent="1">
          <mxGeometry x="10" y="320" width="70" height="20" as="geometry" />
        </mxCell>
        <mxCell id="n9ukQrLT0u2X3xsJsxkC-53" style="rounded=0;orthogonalLoop=1;jettySize=auto;html=1;exitX=1;exitY=0.5;exitDx=0;exitDy=0;entryX=0;entryY=1;entryDx=0;entryDy=0;endArrow=none;endFill=0;" edge="1" parent="1" source="n9ukQrLT0u2X3xsJsxkC-16" target="n9ukQrLT0u2X3xsJsxkC-14">
          <mxGeometry relative="1" as="geometry" />
        </mxCell>
        <mxCell id="n9ukQrLT0u2X3xsJsxkC-16" value="&lt;u&gt;artist_id&lt;/u&gt;" style="ellipse;whiteSpace=wrap;html=1;" vertex="1" parent="1">
          <mxGeometry x="10" y="370" width="70" height="20" as="geometry" />
        </mxCell>
        <mxCell id="n9ukQrLT0u2X3xsJsxkC-17" value="bp_artist" style="rounded=0;whiteSpace=wrap;html=1;" vertex="1" parent="1">
          <mxGeometry x="90" y="470" width="100" height="30" as="geometry" />
        </mxCell>
        <mxCell id="n9ukQrLT0u2X3xsJsxkC-57" style="rounded=0;orthogonalLoop=1;jettySize=auto;html=1;exitX=1;exitY=0.5;exitDx=0;exitDy=0;entryX=0;entryY=0.25;entryDx=0;entryDy=0;endArrow=none;endFill=0;" edge="1" parent="1" source="n9ukQrLT0u2X3xsJsxkC-19" target="n9ukQrLT0u2X3xsJsxkC-17">
          <mxGeometry relative="1" as="geometry" />
        </mxCell>
        <mxCell id="n9ukQrLT0u2X3xsJsxkC-19" value="&lt;u&gt;artist_id&lt;/u&gt;" style="ellipse;whiteSpace=wrap;html=1;" vertex="1" parent="1">
          <mxGeometry y="470" width="70" height="20" as="geometry" />
        </mxCell>
        <mxCell id="n9ukQrLT0u2X3xsJsxkC-58" style="rounded=0;orthogonalLoop=1;jettySize=auto;html=1;exitX=1;exitY=0.5;exitDx=0;exitDy=0;entryX=0;entryY=1;entryDx=0;entryDy=0;endArrow=none;endFill=0;" edge="1" parent="1" source="n9ukQrLT0u2X3xsJsxkC-20" target="n9ukQrLT0u2X3xsJsxkC-17">
          <mxGeometry relative="1" as="geometry" />
        </mxCell>
        <mxCell id="n9ukQrLT0u2X3xsJsxkC-20" value="artist_name" style="ellipse;whiteSpace=wrap;html=1;" vertex="1" parent="1">
          <mxGeometry y="520" width="70" height="20" as="geometry" />
        </mxCell>
        <mxCell id="n9ukQrLT0u2X3xsJsxkC-59" style="rounded=0;orthogonalLoop=1;jettySize=auto;html=1;exitX=0.5;exitY=0;exitDx=0;exitDy=0;entryX=0.25;entryY=1;entryDx=0;entryDy=0;endArrow=none;endFill=0;" edge="1" parent="1" source="n9ukQrLT0u2X3xsJsxkC-21" target="n9ukQrLT0u2X3xsJsxkC-17">
          <mxGeometry relative="1" as="geometry" />
        </mxCell>
        <mxCell id="n9ukQrLT0u2X3xsJsxkC-21" value="artist_url" style="ellipse;whiteSpace=wrap;html=1;" vertex="1" parent="1">
          <mxGeometry x="80" y="540" width="70" height="20" as="geometry" />
        </mxCell>
        <mxCell id="n9ukQrLT0u2X3xsJsxkC-74" style="rounded=0;orthogonalLoop=1;jettySize=auto;html=1;exitX=0.5;exitY=1;exitDx=0;exitDy=0;endArrow=none;endFill=0;" edge="1" parent="1" source="n9ukQrLT0u2X3xsJsxkC-22" target="n9ukQrLT0u2X3xsJsxkC-73">
          <mxGeometry relative="1" as="geometry" />
        </mxCell>
        <mxCell id="n9ukQrLT0u2X3xsJsxkC-77" style="rounded=0;orthogonalLoop=1;jettySize=auto;html=1;exitX=1;exitY=0;exitDx=0;exitDy=0;endArrow=none;endFill=0;" edge="1" parent="1" source="n9ukQrLT0u2X3xsJsxkC-22" target="n9ukQrLT0u2X3xsJsxkC-76">
          <mxGeometry relative="1" as="geometry" />
        </mxCell>
        <mxCell id="n9ukQrLT0u2X3xsJsxkC-22" value="bp_track" style="rounded=0;whiteSpace=wrap;html=1;" vertex="1" parent="1">
          <mxGeometry x="460" y="365" width="100" height="30" as="geometry" />
        </mxCell>
        <mxCell id="n9ukQrLT0u2X3xsJsxkC-23" value="&lt;u&gt;track_id&lt;/u&gt;" style="ellipse;whiteSpace=wrap;html=1;" vertex="1" parent="1">
          <mxGeometry x="415" y="435" width="70" height="20" as="geometry" />
        </mxCell>
        <mxCell id="n9ukQrLT0u2X3xsJsxkC-71" style="rounded=0;orthogonalLoop=1;jettySize=auto;html=1;exitX=0.5;exitY=1;exitDx=0;exitDy=0;entryX=0;entryY=0.25;entryDx=0;entryDy=0;endArrow=none;endFill=0;" edge="1" parent="1" source="n9ukQrLT0u2X3xsJsxkC-24" target="n9ukQrLT0u2X3xsJsxkC-22">
          <mxGeometry relative="1" as="geometry" />
        </mxCell>
        <mxCell id="n9ukQrLT0u2X3xsJsxkC-24" value="genre_id" style="ellipse;whiteSpace=wrap;html=1;" vertex="1" parent="1">
          <mxGeometry x="390" y="310" width="70" height="20" as="geometry" />
        </mxCell>
        <mxCell id="n9ukQrLT0u2X3xsJsxkC-25" value="title" style="ellipse;whiteSpace=wrap;html=1;" vertex="1" parent="1">
          <mxGeometry x="465" y="310" width="70" height="20" as="geometry" />
        </mxCell>
        <mxCell id="n9ukQrLT0u2X3xsJsxkC-69" style="rounded=0;orthogonalLoop=1;jettySize=auto;html=1;exitX=0;exitY=0.5;exitDx=0;exitDy=0;entryX=1;entryY=0.5;entryDx=0;entryDy=0;endArrow=none;endFill=0;" edge="1" parent="1" source="n9ukQrLT0u2X3xsJsxkC-26" target="n9ukQrLT0u2X3xsJsxkC-22">
          <mxGeometry relative="1" as="geometry" />
        </mxCell>
        <mxCell id="n9ukQrLT0u2X3xsJsxkC-26" value="release_date" style="ellipse;whiteSpace=wrap;html=1;" vertex="1" parent="1">
          <mxGeometry x="645" y="405" width="70" height="20" as="geometry" />
        </mxCell>
        <mxCell id="n9ukQrLT0u2X3xsJsxkC-70" style="rounded=0;orthogonalLoop=1;jettySize=auto;html=1;exitX=0;exitY=0.5;exitDx=0;exitDy=0;entryX=1;entryY=0.5;entryDx=0;entryDy=0;endArrow=none;endFill=0;" edge="1" parent="1" source="n9ukQrLT0u2X3xsJsxkC-27" target="n9ukQrLT0u2X3xsJsxkC-22">
          <mxGeometry relative="1" as="geometry" />
        </mxCell>
        <mxCell id="n9ukQrLT0u2X3xsJsxkC-27" value="track_url" style="ellipse;whiteSpace=wrap;html=1;" vertex="1" parent="1">
          <mxGeometry x="635" y="370" width="70" height="20" as="geometry" />
        </mxCell>
        <mxCell id="n9ukQrLT0u2X3xsJsxkC-63" style="rounded=0;orthogonalLoop=1;jettySize=auto;html=1;exitX=1;exitY=0.5;exitDx=0;exitDy=0;entryX=0;entryY=1;entryDx=0;entryDy=0;endArrow=none;endFill=0;" edge="1" parent="1" source="n9ukQrLT0u2X3xsJsxkC-28" target="n9ukQrLT0u2X3xsJsxkC-22">
          <mxGeometry relative="1" as="geometry" />
        </mxCell>
        <mxCell id="n9ukQrLT0u2X3xsJsxkC-28" value="isrc" style="ellipse;whiteSpace=wrap;html=1;" vertex="1" parent="1">
          <mxGeometry x="355" y="405" width="70" height="20" as="geometry" />
        </mxCell>
        <mxCell id="n9ukQrLT0u2X3xsJsxkC-29" value="bp_genre" style="rounded=0;whiteSpace=wrap;html=1;" vertex="1" parent="1">
          <mxGeometry x="710" y="270" width="80" height="20" as="geometry" />
        </mxCell>
        <mxCell id="n9ukQrLT0u2X3xsJsxkC-30" value="&lt;u&gt;genre_id&lt;/u&gt;" style="ellipse;whiteSpace=wrap;html=1;" vertex="1" parent="1">
          <mxGeometry x="700" y="230" width="70" height="20" as="geometry" />
        </mxCell>
        <mxCell id="n9ukQrLT0u2X3xsJsxkC-81" style="rounded=0;orthogonalLoop=1;jettySize=auto;html=1;exitX=0.5;exitY=1;exitDx=0;exitDy=0;entryX=1;entryY=0;entryDx=0;entryDy=0;endArrow=none;endFill=0;" edge="1" parent="1" source="n9ukQrLT0u2X3xsJsxkC-31" target="n9ukQrLT0u2X3xsJsxkC-29">
          <mxGeometry relative="1" as="geometry" />
        </mxCell>
        <mxCell id="n9ukQrLT0u2X3xsJsxkC-31" value="genre_name" style="ellipse;whiteSpace=wrap;html=1;" vertex="1" parent="1">
          <mxGeometry x="780" y="230" width="70" height="20" as="geometry" />
        </mxCell>
        <mxCell id="n9ukQrLT0u2X3xsJsxkC-79" style="rounded=0;orthogonalLoop=1;jettySize=auto;html=1;exitX=1;exitY=1;exitDx=0;exitDy=0;entryX=0;entryY=0.25;entryDx=0;entryDy=0;endArrow=none;endFill=0;" edge="1" parent="1" source="n9ukQrLT0u2X3xsJsxkC-32" target="n9ukQrLT0u2X3xsJsxkC-29">
          <mxGeometry relative="1" as="geometry" />
        </mxCell>
        <mxCell id="n9ukQrLT0u2X3xsJsxkC-32" value="genre_url" style="ellipse;whiteSpace=wrap;html=1;" vertex="1" parent="1">
          <mxGeometry x="620" y="230" width="70" height="20" as="geometry" />
        </mxCell>
        <mxCell id="n9ukQrLT0u2X3xsJsxkC-33" value="audio_features" style="rounded=0;whiteSpace=wrap;html=1;" vertex="1" parent="1">
          <mxGeometry x="465" y="640" width="100" height="30" as="geometry" />
        </mxCell>
        <mxCell id="n9ukQrLT0u2X3xsJsxkC-85" style="rounded=0;orthogonalLoop=1;jettySize=auto;html=1;exitX=1;exitY=0;exitDx=0;exitDy=0;entryX=0;entryY=0.75;entryDx=0;entryDy=0;endArrow=none;endFill=0;" edge="1" parent="1" source="n9ukQrLT0u2X3xsJsxkC-34" target="n9ukQrLT0u2X3xsJsxkC-33">
          <mxGeometry relative="1" as="geometry" />
        </mxCell>
        <mxCell id="n9ukQrLT0u2X3xsJsxkC-34" value="&lt;u&gt;isrc&lt;/u&gt;" style="ellipse;whiteSpace=wrap;html=1;" vertex="1" parent="1">
          <mxGeometry x="330" y="690" width="70" height="20" as="geometry" />
        </mxCell>
        <mxCell id="n9ukQrLT0u2X3xsJsxkC-35" value="&lt;meta charset=&quot;utf-8&quot;&gt;&lt;span style=&quot;color: rgb(32, 33, 36); font-family: Inter, sans-serif; font-size: 12px; font-style: normal; font-variant-ligatures: normal; font-variant-caps: normal; font-weight: 500; letter-spacing: 0.2px; orphans: 2; text-align: left; text-indent: 0px; text-transform: none; widows: 2; word-spacing: 0px; -webkit-text-stroke-width: 0px; white-space: nowrap; background-color: rgb(255, 255, 255); text-decoration-thickness: initial; text-decoration-style: initial; text-decoration-color: initial; display: inline !important; float: none;&quot;&gt;acousticness&lt;/span&gt;" style="ellipse;whiteSpace=wrap;html=1;" vertex="1" parent="1">
          <mxGeometry x="430" y="700" width="50" height="30" as="geometry" />
        </mxCell>
        <mxCell id="n9ukQrLT0u2X3xsJsxkC-36" value="&lt;meta charset=&quot;utf-8&quot;&gt;&lt;span style=&quot;color: rgb(32, 33, 36); font-family: Inter, sans-serif; font-size: 12px; font-style: normal; font-variant-ligatures: normal; font-variant-caps: normal; font-weight: 500; letter-spacing: 0.2px; orphans: 2; text-align: left; text-indent: 0px; text-transform: none; widows: 2; word-spacing: 0px; -webkit-text-stroke-width: 0px; white-space: nowrap; background-color: rgb(255, 255, 255); text-decoration-thickness: initial; text-decoration-style: initial; text-decoration-color: initial; display: inline !important; float: none;&quot;&gt;danceability&lt;/span&gt;" style="ellipse;whiteSpace=wrap;html=1;" vertex="1" parent="1">
          <mxGeometry x="495" y="720" width="70" height="30" as="geometry" />
        </mxCell>
        <mxCell id="n9ukQrLT0u2X3xsJsxkC-93" style="rounded=0;orthogonalLoop=1;jettySize=auto;html=1;exitX=0;exitY=0.5;exitDx=0;exitDy=0;entryX=1;entryY=0.25;entryDx=0;entryDy=0;endArrow=none;endFill=0;" edge="1" parent="1" source="n9ukQrLT0u2X3xsJsxkC-37" target="n9ukQrLT0u2X3xsJsxkC-33">
          <mxGeometry relative="1" as="geometry" />
        </mxCell>
        <mxCell id="n9ukQrLT0u2X3xsJsxkC-37" value="&lt;meta charset=&quot;utf-8&quot;&gt;&lt;span style=&quot;color: rgb(32, 33, 36); font-family: Inter, sans-serif; font-size: 12px; font-style: normal; font-variant-ligatures: normal; font-variant-caps: normal; font-weight: 500; letter-spacing: 0.2px; orphans: 2; text-align: left; text-indent: 0px; text-transform: none; widows: 2; word-spacing: 0px; -webkit-text-stroke-width: 0px; white-space: nowrap; background-color: rgb(255, 255, 255); text-decoration-thickness: initial; text-decoration-style: initial; text-decoration-color: initial; display: inline !important; float: none;&quot;&gt;energy&lt;/span&gt;" style="ellipse;whiteSpace=wrap;html=1;" vertex="1" parent="1">
          <mxGeometry x="630" y="660" width="70" height="20" as="geometry" />
        </mxCell>
        <mxCell id="n9ukQrLT0u2X3xsJsxkC-38" value="&lt;meta charset=&quot;utf-8&quot;&gt;&lt;span style=&quot;color: rgb(32, 33, 36); font-family: Inter, sans-serif; font-size: 12px; font-style: normal; font-variant-ligatures: normal; font-variant-caps: normal; font-weight: 500; letter-spacing: 0.2px; orphans: 2; text-align: left; text-indent: 0px; text-transform: none; widows: 2; word-spacing: 0px; -webkit-text-stroke-width: 0px; white-space: nowrap; background-color: rgb(255, 255, 255); text-decoration-thickness: initial; text-decoration-style: initial; text-decoration-color: initial; display: inline !important; float: none;&quot;&gt;instrumentalness&lt;/span&gt;" style="ellipse;whiteSpace=wrap;html=1;" vertex="1" parent="1">
          <mxGeometry x="560" y="750" width="80" height="30" as="geometry" />
        </mxCell>
        <mxCell id="n9ukQrLT0u2X3xsJsxkC-90" style="rounded=0;orthogonalLoop=1;jettySize=auto;html=1;exitX=0;exitY=0;exitDx=0;exitDy=0;entryX=1;entryY=0.75;entryDx=0;entryDy=0;endArrow=none;endFill=0;" edge="1" parent="1" source="n9ukQrLT0u2X3xsJsxkC-39" target="n9ukQrLT0u2X3xsJsxkC-33">
          <mxGeometry relative="1" as="geometry" />
        </mxCell>
        <mxCell id="n9ukQrLT0u2X3xsJsxkC-39" value="&lt;meta charset=&quot;utf-8&quot;&gt;&lt;span style=&quot;color: rgb(32, 33, 36); font-family: Inter, sans-serif; font-size: 12px; font-style: normal; font-variant-ligatures: normal; font-variant-caps: normal; font-weight: 500; letter-spacing: 0.2px; orphans: 2; text-align: left; text-indent: 0px; text-transform: none; widows: 2; word-spacing: 0px; -webkit-text-stroke-width: 0px; white-space: nowrap; background-color: rgb(255, 255, 255); text-decoration-thickness: initial; text-decoration-style: initial; text-decoration-color: initial; display: inline !important; float: none;&quot;&gt;liveness&lt;/span&gt;" style="ellipse;whiteSpace=wrap;html=1;" vertex="1" parent="1">
          <mxGeometry x="610" y="705" width="70" height="20" as="geometry" />
        </mxCell>
        <mxCell id="n9ukQrLT0u2X3xsJsxkC-92" style="rounded=0;orthogonalLoop=1;jettySize=auto;html=1;exitX=0;exitY=0.5;exitDx=0;exitDy=0;entryX=1;entryY=0;entryDx=0;entryDy=0;endArrow=none;endFill=0;" edge="1" parent="1" source="n9ukQrLT0u2X3xsJsxkC-40" target="n9ukQrLT0u2X3xsJsxkC-33">
          <mxGeometry relative="1" as="geometry" />
        </mxCell>
        <mxCell id="n9ukQrLT0u2X3xsJsxkC-40" value="&lt;meta charset=&quot;utf-8&quot;&gt;&lt;span style=&quot;color: rgb(32, 33, 36); font-family: Inter, sans-serif; font-size: 12px; font-style: normal; font-variant-ligatures: normal; font-variant-caps: normal; font-weight: 500; letter-spacing: 0.2px; orphans: 2; text-align: left; text-indent: 0px; text-transform: none; widows: 2; word-spacing: 0px; -webkit-text-stroke-width: 0px; white-space: nowrap; background-color: rgb(255, 255, 255); text-decoration-thickness: initial; text-decoration-style: initial; text-decoration-color: initial; display: inline !important; float: none;&quot;&gt;loudness&lt;/span&gt;" style="ellipse;whiteSpace=wrap;html=1;" vertex="1" parent="1">
          <mxGeometry x="630" y="625" width="50" height="20" as="geometry" />
        </mxCell>
        <mxCell id="n9ukQrLT0u2X3xsJsxkC-91" style="rounded=0;orthogonalLoop=1;jettySize=auto;html=1;exitX=0;exitY=1;exitDx=0;exitDy=0;entryX=0.75;entryY=0;entryDx=0;entryDy=0;endArrow=none;endFill=0;" edge="1" parent="1" source="n9ukQrLT0u2X3xsJsxkC-41" target="n9ukQrLT0u2X3xsJsxkC-33">
          <mxGeometry relative="1" as="geometry" />
        </mxCell>
        <mxCell id="n9ukQrLT0u2X3xsJsxkC-41" value="&lt;meta charset=&quot;utf-8&quot;&gt;&lt;span style=&quot;color: rgb(32, 33, 36); font-family: Inter, sans-serif; font-size: 12px; font-style: normal; font-variant-ligatures: normal; font-variant-caps: normal; font-weight: 500; letter-spacing: 0.2px; orphans: 2; text-align: left; text-indent: 0px; text-transform: none; widows: 2; word-spacing: 0px; -webkit-text-stroke-width: 0px; white-space: nowrap; background-color: rgb(255, 255, 255); text-decoration-thickness: initial; text-decoration-style: initial; text-decoration-color: initial; display: inline !important; float: none;&quot;&gt;speechiness&lt;/span&gt;" style="ellipse;whiteSpace=wrap;html=1;" vertex="1" parent="1">
          <mxGeometry x="550" y="590" width="70" height="20" as="geometry" />
        </mxCell>
        <mxCell id="n9ukQrLT0u2X3xsJsxkC-83" style="rounded=0;orthogonalLoop=1;jettySize=auto;html=1;exitX=1;exitY=0.5;exitDx=0;exitDy=0;entryX=0;entryY=0.5;entryDx=0;entryDy=0;endArrow=none;endFill=0;" edge="1" parent="1" source="n9ukQrLT0u2X3xsJsxkC-42" target="n9ukQrLT0u2X3xsJsxkC-33">
          <mxGeometry relative="1" as="geometry" />
        </mxCell>
        <mxCell id="n9ukQrLT0u2X3xsJsxkC-42" value="&lt;meta charset=&quot;utf-8&quot;&gt;&lt;span style=&quot;color: rgb(32, 33, 36); font-family: Inter, sans-serif; font-size: 12px; font-style: normal; font-variant-ligatures: normal; font-variant-caps: normal; font-weight: 500; letter-spacing: 0.2px; orphans: 2; text-align: left; text-indent: 0px; text-transform: none; widows: 2; word-spacing: 0px; -webkit-text-stroke-width: 0px; white-space: nowrap; background-color: rgb(255, 255, 255); text-decoration-thickness: initial; text-decoration-style: initial; text-decoration-color: initial; display: inline !important; float: none;&quot;&gt;valence&lt;/span&gt;" style="ellipse;whiteSpace=wrap;html=1;" vertex="1" parent="1">
          <mxGeometry x="320" y="645" width="70" height="20" as="geometry" />
        </mxCell>
        <mxCell id="n9ukQrLT0u2X3xsJsxkC-47" style="rounded=0;orthogonalLoop=1;jettySize=auto;html=1;exitX=0.75;exitY=0;exitDx=0;exitDy=0;entryX=0.289;entryY=0.85;entryDx=0;entryDy=0;entryPerimeter=0;endArrow=none;endFill=0;strokeColor=none;" edge="1" parent="1" source="n9ukQrLT0u2X3xsJsxkC-9" target="n9ukQrLT0u2X3xsJsxkC-12">
          <mxGeometry relative="1" as="geometry" />
        </mxCell>
        <mxCell id="n9ukQrLT0u2X3xsJsxkC-51" style="edgeStyle=orthogonalEdgeStyle;rounded=0;orthogonalLoop=1;jettySize=auto;html=1;exitX=0.5;exitY=1;exitDx=0;exitDy=0;entryX=0.5;entryY=0;entryDx=0;entryDy=0;endArrow=none;endFill=0;" edge="1" parent="1" source="n9ukQrLT0u2X3xsJsxkC-49" target="n9ukQrLT0u2X3xsJsxkC-14">
          <mxGeometry relative="1" as="geometry" />
        </mxCell>
        <mxCell id="n9ukQrLT0u2X3xsJsxkC-49" value="has" style="rhombus;whiteSpace=wrap;html=1;" vertex="1" parent="1">
          <mxGeometry x="105" y="270" width="70" height="30" as="geometry" />
        </mxCell>
        <mxCell id="n9ukQrLT0u2X3xsJsxkC-56" style="rounded=0;orthogonalLoop=1;jettySize=auto;html=1;exitX=0.5;exitY=1;exitDx=0;exitDy=0;entryX=0.5;entryY=0;entryDx=0;entryDy=0;endArrow=none;endFill=0;" edge="1" parent="1" source="n9ukQrLT0u2X3xsJsxkC-54" target="n9ukQrLT0u2X3xsJsxkC-17">
          <mxGeometry relative="1" as="geometry" />
        </mxCell>
        <mxCell id="n9ukQrLT0u2X3xsJsxkC-54" value="release" style="rhombus;whiteSpace=wrap;html=1;" vertex="1" parent="1">
          <mxGeometry x="105" y="410" width="70" height="30" as="geometry" />
        </mxCell>
        <mxCell id="n9ukQrLT0u2X3xsJsxkC-64" style="rounded=0;orthogonalLoop=1;jettySize=auto;html=1;exitX=0.5;exitY=0;exitDx=0;exitDy=0;entryX=0.1;entryY=1.067;entryDx=0;entryDy=0;entryPerimeter=0;endArrow=none;endFill=0;" edge="1" parent="1" source="n9ukQrLT0u2X3xsJsxkC-23" target="n9ukQrLT0u2X3xsJsxkC-22">
          <mxGeometry relative="1" as="geometry" />
        </mxCell>
        <mxCell id="n9ukQrLT0u2X3xsJsxkC-72" style="rounded=0;orthogonalLoop=1;jettySize=auto;html=1;exitX=0.5;exitY=1;exitDx=0;exitDy=0;entryX=0.39;entryY=0.1;entryDx=0;entryDy=0;entryPerimeter=0;endArrow=none;endFill=0;" edge="1" parent="1" source="n9ukQrLT0u2X3xsJsxkC-25" target="n9ukQrLT0u2X3xsJsxkC-22">
          <mxGeometry relative="1" as="geometry" />
        </mxCell>
        <mxCell id="n9ukQrLT0u2X3xsJsxkC-75" style="rounded=0;orthogonalLoop=1;jettySize=auto;html=1;exitX=0.5;exitY=1;exitDx=0;exitDy=0;endArrow=none;endFill=0;" edge="1" parent="1" source="n9ukQrLT0u2X3xsJsxkC-73" target="n9ukQrLT0u2X3xsJsxkC-33">
          <mxGeometry relative="1" as="geometry" />
        </mxCell>
        <mxCell id="n9ukQrLT0u2X3xsJsxkC-73" value="has" style="rhombus;whiteSpace=wrap;html=1;" vertex="1" parent="1">
          <mxGeometry x="475" y="505" width="70" height="30" as="geometry" />
        </mxCell>
        <mxCell id="n9ukQrLT0u2X3xsJsxkC-78" style="rounded=0;orthogonalLoop=1;jettySize=auto;html=1;exitX=1;exitY=0;exitDx=0;exitDy=0;entryX=0.5;entryY=1;entryDx=0;entryDy=0;endArrow=none;endFill=0;" edge="1" parent="1" source="n9ukQrLT0u2X3xsJsxkC-76" target="n9ukQrLT0u2X3xsJsxkC-29">
          <mxGeometry relative="1" as="geometry" />
        </mxCell>
        <mxCell id="n9ukQrLT0u2X3xsJsxkC-76" value="has" style="rhombus;whiteSpace=wrap;html=1;" vertex="1" parent="1">
          <mxGeometry x="590" y="305" width="70" height="30" as="geometry" />
        </mxCell>
        <mxCell id="n9ukQrLT0u2X3xsJsxkC-82" style="rounded=0;orthogonalLoop=1;jettySize=auto;html=1;exitX=0.5;exitY=1;exitDx=0;exitDy=0;entryX=0.363;entryY=0.15;entryDx=0;entryDy=0;entryPerimeter=0;endArrow=none;endFill=0;" edge="1" parent="1" source="n9ukQrLT0u2X3xsJsxkC-30" target="n9ukQrLT0u2X3xsJsxkC-29">
          <mxGeometry relative="1" as="geometry" />
        </mxCell>
        <mxCell id="n9ukQrLT0u2X3xsJsxkC-86" style="rounded=0;orthogonalLoop=1;jettySize=auto;html=1;exitX=0.5;exitY=0;exitDx=0;exitDy=0;entryX=0.09;entryY=1;entryDx=0;entryDy=0;entryPerimeter=0;endArrow=none;endFill=0;" edge="1" parent="1" source="n9ukQrLT0u2X3xsJsxkC-35" target="n9ukQrLT0u2X3xsJsxkC-33">
          <mxGeometry relative="1" as="geometry" />
        </mxCell>
        <mxCell id="n9ukQrLT0u2X3xsJsxkC-87" style="rounded=0;orthogonalLoop=1;jettySize=auto;html=1;exitX=0.5;exitY=0;exitDx=0;exitDy=0;entryX=0.43;entryY=1.033;entryDx=0;entryDy=0;entryPerimeter=0;endArrow=none;endFill=0;" edge="1" parent="1" source="n9ukQrLT0u2X3xsJsxkC-36" target="n9ukQrLT0u2X3xsJsxkC-33">
          <mxGeometry relative="1" as="geometry" />
        </mxCell>
        <mxCell id="n9ukQrLT0u2X3xsJsxkC-88" style="rounded=0;orthogonalLoop=1;jettySize=auto;html=1;exitX=0.5;exitY=0;exitDx=0;exitDy=0;entryX=0.87;entryY=1.067;entryDx=0;entryDy=0;entryPerimeter=0;endArrow=none;endFill=0;" edge="1" parent="1" source="n9ukQrLT0u2X3xsJsxkC-38" target="n9ukQrLT0u2X3xsJsxkC-33">
          <mxGeometry relative="1" as="geometry" />
        </mxCell>
        <mxCell id="n9ukQrLT0u2X3xsJsxkC-94" value="0..*" style="text;html=1;align=center;verticalAlign=middle;resizable=0;points=[];autosize=1;strokeColor=none;fillColor=none;" vertex="1" parent="1">
          <mxGeometry x="180" y="180" width="40" height="30" as="geometry" />
        </mxCell>
        <mxCell id="n9ukQrLT0u2X3xsJsxkC-95" value="1..1" style="text;html=1;align=center;verticalAlign=middle;resizable=0;points=[];autosize=1;strokeColor=none;fillColor=none;" vertex="1" parent="1">
          <mxGeometry x="410" y="180" width="40" height="30" as="geometry" />
        </mxCell>
        <mxCell id="n9ukQrLT0u2X3xsJsxkC-96" value="0..*" style="text;html=1;align=center;verticalAlign=middle;resizable=0;points=[];autosize=1;strokeColor=none;fillColor=none;" vertex="1" parent="1">
          <mxGeometry x="135" y="220" width="40" height="30" as="geometry" />
        </mxCell>
        <mxCell id="n9ukQrLT0u2X3xsJsxkC-97" value="0..*" style="text;html=1;align=center;verticalAlign=middle;resizable=0;points=[];autosize=1;strokeColor=none;fillColor=none;" vertex="1" parent="1">
          <mxGeometry x="135" y="320" width="40" height="30" as="geometry" />
        </mxCell>
        <mxCell id="n9ukQrLT0u2X3xsJsxkC-98" value="0..*" style="text;html=1;align=center;verticalAlign=middle;resizable=0;points=[];autosize=1;strokeColor=none;fillColor=none;" vertex="1" parent="1">
          <mxGeometry x="135" y="380" width="40" height="30" as="geometry" />
        </mxCell>
        <mxCell id="n9ukQrLT0u2X3xsJsxkC-99" value="0..*" style="text;html=1;align=center;verticalAlign=middle;resizable=0;points=[];autosize=1;strokeColor=none;fillColor=none;" vertex="1" parent="1">
          <mxGeometry x="135" y="440" width="40" height="30" as="geometry" />
        </mxCell>
        <mxCell id="n9ukQrLT0u2X3xsJsxkC-102" value="0..*" style="text;html=1;align=center;verticalAlign=middle;resizable=0;points=[];autosize=1;strokeColor=none;fillColor=none;" vertex="1" parent="1">
          <mxGeometry x="505" y="395" width="40" height="30" as="geometry" />
        </mxCell>
        <mxCell id="n9ukQrLT0u2X3xsJsxkC-103" value="0..*" style="text;html=1;align=center;verticalAlign=middle;resizable=0;points=[];autosize=1;strokeColor=none;fillColor=none;" vertex="1" parent="1">
          <mxGeometry x="480" y="615" width="40" height="30" as="geometry" />
        </mxCell>
        <mxCell id="n9ukQrLT0u2X3xsJsxkC-104" value="1..*" style="text;html=1;align=center;verticalAlign=middle;resizable=0;points=[];autosize=1;strokeColor=none;fillColor=none;" vertex="1" parent="1">
          <mxGeometry x="530" y="335" width="40" height="30" as="geometry" />
        </mxCell>
        <mxCell id="n9ukQrLT0u2X3xsJsxkC-105" value="0..*" style="text;html=1;align=center;verticalAlign=middle;resizable=0;points=[];autosize=1;strokeColor=none;fillColor=none;" vertex="1" parent="1">
          <mxGeometry x="670" y="275" width="40" height="30" as="geometry" />
        </mxCell>
        <mxCell id="n9ukQrLT0u2X3xsJsxkC-109" style="rounded=0;orthogonalLoop=1;jettySize=auto;html=1;exitX=1;exitY=1;exitDx=0;exitDy=0;entryX=0;entryY=0.5;entryDx=0;entryDy=0;endArrow=none;endFill=0;" edge="1" parent="1" source="n9ukQrLT0u2X3xsJsxkC-107" target="n9ukQrLT0u2X3xsJsxkC-22">
          <mxGeometry relative="1" as="geometry" />
        </mxCell>
        <mxCell id="n9ukQrLT0u2X3xsJsxkC-107" value="has" style="rhombus;whiteSpace=wrap;html=1;" vertex="1" parent="1">
          <mxGeometry x="250" y="300" width="70" height="30" as="geometry" />
        </mxCell>
        <mxCell id="n9ukQrLT0u2X3xsJsxkC-110" value="0..*" style="text;html=1;align=center;verticalAlign=middle;resizable=0;points=[];autosize=1;strokeColor=none;fillColor=none;" vertex="1" parent="1">
          <mxGeometry x="180" y="210" width="40" height="30" as="geometry" />
        </mxCell>
        <mxCell id="n9ukQrLT0u2X3xsJsxkC-111" value="0..1" style="text;html=1;align=center;verticalAlign=middle;resizable=0;points=[];autosize=1;strokeColor=none;fillColor=none;" vertex="1" parent="1">
          <mxGeometry x="415" y="370" width="40" height="30" as="geometry" />
        </mxCell>
        <mxCell id="n9ukQrLT0u2X3xsJsxkC-112" value="release_id" style="ellipse;whiteSpace=wrap;html=1;" vertex="1" parent="1">
          <mxGeometry x="550" y="435" width="70" height="20" as="geometry" />
        </mxCell>
        <mxCell id="n9ukQrLT0u2X3xsJsxkC-113" style="rounded=0;orthogonalLoop=1;jettySize=auto;html=1;exitX=0.5;exitY=0;exitDx=0;exitDy=0;entryX=0.93;entryY=1;entryDx=0;entryDy=0;entryPerimeter=0;endArrow=none;endFill=0;" edge="1" parent="1" source="n9ukQrLT0u2X3xsJsxkC-112" target="n9ukQrLT0u2X3xsJsxkC-22">
          <mxGeometry relative="1" as="geometry" />
        </mxCell>
      </root>
    </mxGraphModel>
  </diagram>
</mxfile>
